<?xml version="1.0" encoding="UTF-8" standalone="no"?>
<svg
   xmlns:dc="http://purl.org/dc/elements/1.1/"
   xmlns:cc="http://creativecommons.org/ns#"
   xmlns:rdf="http://www.w3.org/1999/02/22-rdf-syntax-ns#"
   xmlns:svg="http://www.w3.org/2000/svg"
   xmlns="http://www.w3.org/2000/svg"
   xmlns:sodipodi="http://sodipodi.sourceforge.net/DTD/sodipodi-0.dtd"
   xmlns:inkscape="http://www.inkscape.org/namespaces/inkscape"
   width="5.2916698mm"
   height="5.2916598mm"
   viewBox="0 0 5.2916698 5.2916598"
   version="1.1"
   id="svg2229"
   inkscape:version="1.0.1 (3bc2e813f5, 2020-09-07)"
   sodipodi:docname="facebook_white.svg">
  <defs
     id="defs2223" />
  <sodipodi:namedview
     id="base"
     pagecolor="#ffffff"
     bordercolor="#666666"
     borderopacity="1.0"
     inkscape:pageopacity="0.0"
     inkscape:pageshadow="2"
     inkscape:zoom="16"
     inkscape:cx="11.003909"
     inkscape:cy="8.9257819"
     inkscape:document-units="mm"
     inkscape:current-layer="layer1"
     inkscape:document-rotation="0"
     showgrid="false"
     fit-margin-top="0"
     fit-margin-left="0"
     fit-margin-right="0"
     fit-margin-bottom="0"
     inkscape:window-width="1639"
     inkscape:window-height="1040"
     inkscape:window-x="569"
     inkscape:window-y="55"
     inkscape:window-maximized="0" />
  <metadata
     id="metadata2226">
    <rdf:RDF>
      <cc:Work
         rdf:about="">
        <dc:format>image/svg+xml</dc:format>
        <dc:type
           rdf:resource="http://purl.org/dc/dcmitype/StillImage" />
        <dc:title></dc:title>
      </cc:Work>
    </rdf:RDF>
  </metadata>
  <g
     inkscape:label="レイヤー 1"
     inkscape:groupmode="layer"
     id="layer1"
     transform="translate(-119.0625,-165.17564)">
    <path
       d="m 124.35417,166.16778 v 3.30729 a 0.9921875,0.9921875 0 0 1 -0.99219,0.99219 h -0.64823 v -2.05052 h 0.68527 l 0.10319,-0.79375 h -0.79375 v -0.51594 c 0,-0.23018 0.0635,-0.38364 0.39687,-0.38364 h 0.42069 v -0.71702 a 5.42925,5.42925 0 0 0 -0.60854,-0.037 0.96572917,0.96572917 0 0 0 -1.02923,1.05833 v 0.59002 h -0.69056 v 0.79375 h 0.69056 v 2.05581 h -1.83356 a 0.9921875,0.9921875 0 0 1 -0.99219,-0.99219 v -3.30729 a 0.9921875,0.9921875 0 0 1 0.99219,-0.99218 h 3.30729 a 0.9921875,0.9921875 0 0 1 0.99219,0.99218 z"
       id="path2792"
       style="stroke-width:0.264583;fill:#ffffff;fill-opacity:1" />
  </g>
</svg>
